# xmcd
#
# Track frame offsets: 
#        183
#        14998
#        40430
#        48595
#        67213
#        81570
#        98843
#        122548
#        141653
#        170763
#        191065
#
# Disc length: 2858 seconds
#
# Revision: 1
# Processed by: cddbd v1.5.2PL0 Copyright (c) Steve Scherf et al.
# Submitted via: ExactAudioCopy v0.99pb5
#
DISCID=b30b280b
DTITLE=Various Artist - Bande Original du Journal de Spirou
DYEAR=1988
DGENRE=Jazz
TTITLE0=Jean-Francois Pauvros - Double vol
TTITLE1=Tony Hymas - Panique au Vatican
TTITLE2=John Zorn - Spirou et fantasio a New York
TTITLE3=Clive Bell - Aventure Birmane
TTITLE4=Lol Coxhill - Le professionnel
TTITLE5=David Weinstein - Les sculpteurs de lumiere
TTITLE6=Steve Beresford - Le voyageur du Mezozoique
TTITLE7=Jean Méreu - Magdalena
TTITLE8=Lol Coxhill - Et les motards mon cher Watson
TTITLE9=Yves Robert - Popaine et vieux tableaux
TTITLE10=Mike Cooper - Les vengeurs du sonora
EXTD=
EXTT0=
EXTT1=
EXTT2=
EXTT3=
EXTT4=
EXTT5=
EXTT6=
EXTT7=
EXTT8=
EXTT9=
EXTT10=
PLAYORDER=
